<svg id="Шар_2" data-name="Шар 2" xmlns="http://www.w3.org/2000/svg" width="25" height="25" viewBox="0 0 25 25"><defs><style>.cls-1{fill:none;stroke:#f57631;stroke-linecap:round;stroke-linejoin:round;}.cls-2{fill:#a2412e;}</style></defs><rect class="cls-1" x="1.5" y="1.5" width="22" height="22" rx="1.32"/><path class="cls-2" d="M4.12,18.64l0-.07.12-.49.1-.08a10.15,10.15,0,0,0,1.79-.15.59.59,0,0,0,.21-.16.88.88,0,0,0,.19-.39c.11-.38.31-1.43.61-3.15l.71-4.08C8,8.86,8.12,8.15,8.14,8,8,8,7.64,8.2,7,8.51l-2.08.94-.16-.13L5,8.11A26.86,26.86,0,0,0,8.64,7a9.78,9.78,0,0,0,1.71-.82l.33.25c-.08.3-.36,1.8-.82,4.49l-.89,5a9.49,9.49,0,0,0-.19,1.41.55.55,0,0,0,.19.46,2.2,2.2,0,0,0,.95.18l1.21,0,.06.08-.11.48-.09.08-.3,0-1.52,0-1.58,0C6.48,18.55,5.33,18.58,4.12,18.64Z"/><path class="cls-2" d="M12.54,18A20.74,20.74,0,0,0,13,15.4l.08-.08.38.06.07.08a2,2,0,0,0,0,.45,2.35,2.35,0,0,0,.55,1.63,1.92,1.92,0,0,0,1.5.61A2.16,2.16,0,0,0,17.47,17a5.27,5.27,0,0,0,.7-2.72,2.57,2.57,0,0,0-.49-1.68,1.79,1.79,0,0,0-1.46-.6,2.08,2.08,0,0,0-1.08.26,2.64,2.64,0,0,0-.84.83l-.55-.24Q14.7,8,14.88,6.4l.1-.07a25.46,25.46,0,0,0,2.95.13c1.27,0,2.23,0,2.9-.08l.1.17-.81,1.64c-.95.08-1.68.12-2.21.12-1.32,0-2.15,0-2.5-.06l-.75,3.59a3.64,3.64,0,0,1,2.52-.9,4,4,0,0,1,1.71.36,2.55,2.55,0,0,1,1.19,1.13A3.26,3.26,0,0,1,20.5,14,5.07,5.07,0,0,1,20,16.16a4.75,4.75,0,0,1-1.66,1.9,4.7,4.7,0,0,1-2.78.8,5.47,5.47,0,0,1-3-.82Z"/></svg>